<svg preserveAspectRatio="none" overflow="visible" style="display: block;" width="19.4997" height="21.0382" viewBox="0 0 19.4997 21.0382" fill="none" xmlns="http://www.w3.org/2000/svg">
<g id="Group">
<path id="Vector" fill-rule="evenodd" clip-rule="evenodd" d="M14.9999 2.25C14.9999 1.00725 13.9926 0 12.7499 0H6.74986C5.50711 0 4.49986 1.00725 4.49986 2.25V10.5H0.749858C0.452108 10.5 0.182107 10.6762 0.0628573 10.9492C-0.0563927 11.2222 -0.0031429 11.5395 0.198607 11.7585C0.198607 11.7585 5.69386 17.712 8.09686 20.3145C8.52286 20.7757 9.12211 21.0382 9.74986 21.0382C10.3776 21.0382 10.9769 20.7757 11.4029 20.3145C13.8059 17.712 19.3011 11.7585 19.3011 11.7585C19.5029 11.5395 19.5561 11.2222 19.4369 10.9492C19.3176 10.6762 19.0476 10.5 18.7499 10.5H14.9999V2.25ZM13.4999 2.25V11.25C13.4999 11.664 13.8359 12 14.2499 12H17.0369L10.3011 19.2975C10.1586 19.4512 9.95911 19.5382 9.74986 19.5382C9.54061 19.5382 9.34111 19.4512 9.19861 19.2975L2.46286 12H5.24986C5.66386 12 5.99986 11.664 5.99986 11.25V2.25C5.99986 1.836 6.33586 1.5 6.74986 1.5H12.7499C13.1639 1.5 13.4999 1.836 13.4999 2.25ZM10.5501 4.1385L7.55011 9.3345C7.34311 9.693 7.46611 10.152 7.82461 10.359C8.18311 10.566 8.64211 10.443 8.84911 10.0845L11.8491 4.8885C12.0561 4.53 11.9331 4.071 11.5746 3.864C11.2161 3.657 10.7571 3.78 10.5501 4.1385ZM10.9754 9C11.1824 8.6415 11.6414 8.5185 11.9999 8.7255C12.3584 8.9325 12.4814 9.3915 12.2744 9.75C12.0674 10.1085 11.6084 10.2315 11.2499 10.0245C10.8914 9.8175 10.7684 9.3585 10.9754 9ZM7.22536 4.5C7.43236 4.1415 7.89136 4.0185 8.24986 4.2255C8.60836 4.4325 8.73136 4.8915 8.52436 5.25C8.31736 5.6085 7.85836 5.7315 7.49986 5.5245C7.14136 5.3175 7.01836 4.8585 7.22536 4.5Z" fill="#1CA672"/>
</g>
</svg>
